<mxfile modified="2023-03-15T22:00:32.526Z" host="Electron" agent="5.0 (Windows NT 10.0; Win64; x64) AppleWebKit/537.36 (KHTML, like Gecko) draw.io/20.3.0 Chrome/104.0.5112.114 Electron/20.1.3 Safari/537.36" etag="fv2vEtZTCMCuNUgF66or" compressed="false" version="20.3.0" type="device">
  <diagram id="EpFx1K_y37onX5PtusL-" name="Functionality/Logical Modules">
    <mxGraphModel dx="782" dy="517" grid="1" gridSize="10" guides="1" tooltips="1" connect="1" arrows="1" fold="1" page="1" pageScale="1" pageWidth="827" pageHeight="1169" math="0" shadow="0">
      <root>
        <mxCell id="gSJsINXBegKE1LcOUbz0-0" />
        <mxCell id="OCoVe06duih3jOk6tfMH-0" value="Hilight" parent="gSJsINXBegKE1LcOUbz0-0" />
        <mxCell id="gSJsINXBegKE1LcOUbz0-1" parent="gSJsINXBegKE1LcOUbz0-0" />
        <mxCell id="gSJsINXBegKE1LcOUbz0-17" value="&lt;font style=&quot;font-size: 11px&quot;&gt;Project Specific Logical Modules&lt;/font&gt;" style="rounded=1;whiteSpace=wrap;html=1;dashed=1;absoluteArcSize=1;arcSize=8;fillColor=none;container=1;collapsible=0;recursiveResize=0;align=center;verticalAlign=top;spacing=6;spacingTop=-8;textOpacity=60;strokeColor=#666666;" parent="gSJsINXBegKE1LcOUbz0-1" vertex="1">
          <mxGeometry x="620" y="160" width="90" height="250" as="geometry" />
        </mxCell>
        <mxCell id="gSJsINXBegKE1LcOUbz0-18" value="X" style="rounded=0;whiteSpace=wrap;html=1;fillColor=#ffe6cc;textOpacity=60;strokeColor=#666666;" parent="gSJsINXBegKE1LcOUbz0-17" vertex="1">
          <mxGeometry x="10" y="70" width="70" height="60" as="geometry" />
        </mxCell>
        <mxCell id="cgWOcv93DuVKYVG6efOz-6" value="Y" style="rounded=0;whiteSpace=wrap;html=1;fillColor=#ffe6cc;textOpacity=60;strokeColor=#666666;" parent="gSJsINXBegKE1LcOUbz0-17" vertex="1">
          <mxGeometry x="10" y="180" width="70" height="60" as="geometry" />
        </mxCell>
        <mxCell id="gSJsINXBegKE1LcOUbz0-20" style="edgeStyle=none;rounded=0;orthogonalLoop=1;jettySize=auto;html=1;entryX=1;entryY=0.75;entryDx=0;entryDy=0;fontSize=12;fontColor=#990000;endArrow=none;endFill=0;align=left;textOpacity=60;strokeColor=#666666;" parent="gSJsINXBegKE1LcOUbz0-1" target="gSJsINXBegKE1LcOUbz0-12" edge="1">
          <mxGeometry relative="1" as="geometry">
            <mxPoint x="620" y="265" as="sourcePoint" />
          </mxGeometry>
        </mxCell>
        <mxCell id="gSJsINXBegKE1LcOUbz0-2" value="Org Specific Logical Module" style="rounded=1;whiteSpace=wrap;html=1;dashed=1;absoluteArcSize=1;arcSize=8;container=1;collapsible=0;recursiveResize=0;align=center;verticalAlign=top;spacing=6;spacingTop=-8;textOpacity=60;strokeColor=#666666;" parent="gSJsINXBegKE1LcOUbz0-1" vertex="1">
          <mxGeometry x="400" y="160" width="100" height="140" as="geometry" />
        </mxCell>
        <mxCell id="gSJsINXBegKE1LcOUbz0-19" value="Org Specific Environment Service&lt;br&gt;Integrations" style="rounded=0;whiteSpace=wrap;html=1;textOpacity=60;strokeColor=#666666;" parent="gSJsINXBegKE1LcOUbz0-2" vertex="1">
          <mxGeometry x="10" y="70" width="80" height="60" as="geometry" />
        </mxCell>
        <mxCell id="gSJsINXBegKE1LcOUbz0-3" value="&lt;b&gt;Standard System Logical Module&lt;/b&gt;" style="rounded=1;whiteSpace=wrap;html=1;dashed=1;absoluteArcSize=1;arcSize=8;container=1;collapsible=0;recursiveResize=0;align=center;verticalAlign=top;spacing=6;spacingTop=-8;fontStyle=0;strokeWidth=1;fillColor=#f5f5f5;strokeColor=#666666;fontColor=#333333;" parent="gSJsINXBegKE1LcOUbz0-1" vertex="1">
          <mxGeometry x="119" y="160" width="270" height="250" as="geometry" />
        </mxCell>
        <mxCell id="gSJsINXBegKE1LcOUbz0-6" value="&lt;p style=&quot;line-height: 100% ; font-size: 11px&quot;&gt;People, Groups, Permission &amp;amp; Role&lt;br&gt;&lt;font style=&quot;font-size: 11px&quot;&gt;Authorisation&lt;/font&gt;&amp;nbsp;&lt;/p&gt;" style="rounded=0;whiteSpace=wrap;html=1;strokeWidth=2;fillColor=#ffe6cc;strokeColor=#d79b00;" parent="gSJsINXBegKE1LcOUbz0-3" vertex="1">
          <mxGeometry x="100" y="110" width="70" height="60" as="geometry" />
        </mxCell>
        <mxCell id="gSJsINXBegKE1LcOUbz0-7" value="Configuration, Settings, Device/Env Integration" style="rounded=0;whiteSpace=wrap;html=1;" parent="gSJsINXBegKE1LcOUbz0-3" vertex="1">
          <mxGeometry x="100" y="40" width="70" height="60" as="geometry" />
        </mxCell>
        <mxCell id="gSJsINXBegKE1LcOUbz0-9" value="Media&lt;br&gt;&amp;nbsp;&amp;amp;&lt;br&gt;Search / Discovery" style="rounded=0;whiteSpace=wrap;html=1;strokeWidth=1;" parent="gSJsINXBegKE1LcOUbz0-3" vertex="1">
          <mxGeometry x="190" y="180" width="70" height="60" as="geometry" />
        </mxCell>
        <mxCell id="EKagQwNcVSqHctD09159-13" value="&lt;p style=&quot;line-height: 100%&quot;&gt;Sessions &lt;br&gt;&amp;amp;&amp;nbsp;&lt;br&gt;&lt;span&gt;Auditing&amp;nbsp;&lt;/span&gt;&lt;/p&gt;" style="rounded=0;whiteSpace=wrap;html=1;" parent="gSJsINXBegKE1LcOUbz0-3" vertex="1">
          <mxGeometry x="10" y="110" width="70" height="60" as="geometry" />
        </mxCell>
        <mxCell id="cgWOcv93DuVKYVG6efOz-8" value="&lt;p style=&quot;line-height: 100%&quot;&gt;Profiles&lt;br&gt;&lt;/p&gt;" style="rounded=0;whiteSpace=wrap;html=1;" parent="gSJsINXBegKE1LcOUbz0-3" vertex="1">
          <mxGeometry x="190" y="110" width="70" height="60" as="geometry" />
        </mxCell>
        <mxCell id="S9qaTlaMecAEe2MZ8wHX-0" value="&lt;p style=&quot;line-height: 100%&quot;&gt;Branding&lt;/p&gt;" style="rounded=0;whiteSpace=wrap;html=1;" parent="gSJsINXBegKE1LcOUbz0-3" vertex="1">
          <mxGeometry x="190" y="40" width="70" height="60" as="geometry" />
        </mxCell>
        <mxCell id="S9qaTlaMecAEe2MZ8wHX-1" value="Notifications&lt;br&gt;&amp;amp; &lt;br&gt;Messaging" style="rounded=0;whiteSpace=wrap;html=1;" parent="gSJsINXBegKE1LcOUbz0-3" vertex="1">
          <mxGeometry x="10" y="180" width="70" height="60" as="geometry" />
        </mxCell>
        <mxCell id="gSJsINXBegKE1LcOUbz0-11" value="Operation &amp;amp; Workflow Services" style="rounded=0;whiteSpace=wrap;html=1;" parent="gSJsINXBegKE1LcOUbz0-3" vertex="1">
          <mxGeometry x="100" y="180" width="70" height="60" as="geometry" />
        </mxCell>
        <mxCell id="gSJsINXBegKE1LcOUbz0-12" value="Sector Specific Logical Module" style="rounded=1;whiteSpace=wrap;html=1;dashed=1;absoluteArcSize=1;arcSize=8;container=1;collapsible=0;recursiveResize=0;align=center;verticalAlign=top;spacing=6;spacingTop=-8;textOpacity=60;strokeColor=#666666;" parent="gSJsINXBegKE1LcOUbz0-1" vertex="1">
          <mxGeometry x="510" y="160" width="100" height="140" as="geometry" />
        </mxCell>
        <mxCell id="gSJsINXBegKE1LcOUbz0-13" value="Sector&lt;br&gt;System&lt;br&gt;Integrations" style="rounded=0;whiteSpace=wrap;html=1;textOpacity=60;strokeColor=#666666;" parent="gSJsINXBegKE1LcOUbz0-12" vertex="1">
          <mxGeometry x="10" y="70" width="80" height="60" as="geometry" />
        </mxCell>
        <mxCell id="gSJsINXBegKE1LcOUbz0-15" style="edgeStyle=none;rounded=0;orthogonalLoop=1;jettySize=auto;html=1;entryX=1;entryY=0.75;entryDx=0;entryDy=0;endArrow=none;endFill=0;align=left;exitX=0;exitY=0.75;exitDx=0;exitDy=0;textOpacity=60;strokeColor=#666666;" parent="gSJsINXBegKE1LcOUbz0-1" source="gSJsINXBegKE1LcOUbz0-12" target="gSJsINXBegKE1LcOUbz0-2" edge="1">
          <mxGeometry relative="1" as="geometry">
            <mxPoint x="510" y="345" as="sourcePoint" />
          </mxGeometry>
        </mxCell>
        <mxCell id="gSJsINXBegKE1LcOUbz0-16" style="edgeStyle=none;rounded=0;orthogonalLoop=1;jettySize=auto;html=1;endArrow=none;endFill=0;align=left;exitX=0;exitY=0.5;exitDx=0;exitDy=0;strokeColor=#666666;" parent="gSJsINXBegKE1LcOUbz0-1" edge="1">
          <mxGeometry relative="1" as="geometry">
            <mxPoint x="399" y="250" as="sourcePoint" />
            <mxPoint x="390" y="250" as="targetPoint" />
          </mxGeometry>
        </mxCell>
        <mxCell id="gSJsINXBegKE1LcOUbz0-14" style="edgeStyle=none;rounded=0;orthogonalLoop=1;jettySize=auto;html=1;endArrow=none;endFill=0;align=left;exitX=-0.011;exitY=0.139;exitDx=0;exitDy=0;exitPerimeter=0;entryX=1.006;entryY=0.135;entryDx=0;entryDy=0;entryPerimeter=0;" parent="gSJsINXBegKE1LcOUbz0-1" edge="1">
          <mxGeometry relative="1" as="geometry">
            <mxPoint x="619.0099999999998" y="224.75" as="sourcePoint" />
            <mxPoint x="391.6199999999999" y="223.75" as="targetPoint" />
          </mxGeometry>
        </mxCell>
        <mxCell id="cgWOcv93DuVKYVG6efOz-0" value="Te Rito" style="rounded=0;whiteSpace=wrap;html=1;fontSize=10;textOpacity=60;fontStyle=2;strokeColor=none;" parent="gSJsINXBegKE1LcOUbz0-1" vertex="1">
          <mxGeometry x="520" y="330" width="80" height="20" as="geometry" />
        </mxCell>
        <mxCell id="cgWOcv93DuVKYVG6efOz-1" value="Federated ESL" style="rounded=0;whiteSpace=wrap;html=1;fontSize=10;textOpacity=60;fontStyle=2;strokeColor=none;" parent="gSJsINXBegKE1LcOUbz0-1" vertex="1">
          <mxGeometry x="520" y="310" width="80" height="20" as="geometry" />
        </mxCell>
        <mxCell id="cgWOcv93DuVKYVG6efOz-2" value="OCH" style="rounded=0;whiteSpace=wrap;html=1;fontSize=10;textOpacity=60;fontStyle=2;strokeColor=none;" parent="gSJsINXBegKE1LcOUbz0-1" vertex="1">
          <mxGeometry x="520" y="350" width="80" height="20" as="geometry" />
        </mxCell>
        <mxCell id="cgWOcv93DuVKYVG6efOz-3" value="Federated IdPs" style="rounded=0;whiteSpace=wrap;html=1;fontSize=10;textOpacity=60;fontStyle=2;strokeColor=none;" parent="gSJsINXBegKE1LcOUbz0-1" vertex="1">
          <mxGeometry x="410" y="330" width="80" height="20" as="geometry" />
        </mxCell>
        <mxCell id="cgWOcv93DuVKYVG6efOz-4" value="Cloud Computing" style="rounded=0;whiteSpace=wrap;html=1;fontSize=10;textOpacity=60;fontStyle=2;strokeColor=none;" parent="gSJsINXBegKE1LcOUbz0-1" vertex="1">
          <mxGeometry x="410" y="310" width="80" height="20" as="geometry" />
        </mxCell>
        <mxCell id="cgWOcv93DuVKYVG6efOz-5" value="SIEM" style="rounded=0;whiteSpace=wrap;html=1;fontSize=10;textOpacity=60;fontStyle=2;strokeColor=none;" parent="gSJsINXBegKE1LcOUbz0-1" vertex="1">
          <mxGeometry x="410" y="350" width="80" height="20" as="geometry" />
        </mxCell>
        <mxCell id="cgWOcv93DuVKYVG6efOz-7" value="Diagnostics &amp;amp; Errors&amp;nbsp;" style="rounded=0;whiteSpace=wrap;html=1;" parent="gSJsINXBegKE1LcOUbz0-1" vertex="1">
          <mxGeometry x="129" y="200" width="70" height="60" as="geometry" />
        </mxCell>
        <mxCell id="S9qaTlaMecAEe2MZ8wHX-2" value="Reporting" style="rounded=0;whiteSpace=wrap;html=1;fontSize=10;textOpacity=60;fontStyle=2;strokeColor=none;" parent="gSJsINXBegKE1LcOUbz0-1" vertex="1">
          <mxGeometry x="410" y="370" width="80" height="20" as="geometry" />
        </mxCell>
        <mxCell id="S9qaTlaMecAEe2MZ8wHX-3" value="Data warehouse" style="rounded=0;whiteSpace=wrap;html=1;fontSize=10;textOpacity=60;fontStyle=2;strokeColor=none;" parent="gSJsINXBegKE1LcOUbz0-1" vertex="1">
          <mxGeometry x="410" y="390" width="80" height="20" as="geometry" />
        </mxCell>
        <mxCell id="S9qaTlaMecAEe2MZ8wHX-4" value="VLE" style="rounded=0;whiteSpace=wrap;html=1;fontSize=10;textOpacity=60;fontStyle=2;strokeColor=none;" parent="gSJsINXBegKE1LcOUbz0-1" vertex="1">
          <mxGeometry x="520" y="370" width="80" height="20" as="geometry" />
        </mxCell>
        <mxCell id="02RhQ1yy25zqqAknkarm-1" value="Automating via Technology" style="text;html=1;strokeColor=none;fillColor=none;align=center;verticalAlign=middle;whiteSpace=wrap;rounded=0;fontSize=11;fontColor=#990000;fontStyle=2" parent="gSJsINXBegKE1LcOUbz0-1" vertex="1">
          <mxGeometry x="149" y="180" width="220" height="20" as="geometry" />
        </mxCell>
        <mxCell id="tQ_QoDGhXOkSltiblBuO-0" value="Reusing Previous Investments" style="text;html=1;strokeColor=none;fillColor=none;align=center;verticalAlign=middle;whiteSpace=wrap;rounded=0;fontSize=10;fontColor=#990000;fontStyle=2" parent="gSJsINXBegKE1LcOUbz0-1" vertex="1">
          <mxGeometry x="400" y="195" width="100" height="20" as="geometry" />
        </mxCell>
        <mxCell id="h-B6qh_69ruDIncRCCbj-0" value="Meeting 3rd party Obligations" style="text;html=1;strokeColor=none;fillColor=none;align=center;verticalAlign=middle;whiteSpace=wrap;rounded=0;fontSize=10;fontColor=#990000;fontStyle=2" parent="gSJsINXBegKE1LcOUbz0-1" vertex="1">
          <mxGeometry x="510" y="196" width="100" height="20" as="geometry" />
        </mxCell>
        <mxCell id="ICTD8bI57sns8q4JeafQ-0" value="&amp;nbsp;Deliverying on Objectives" style="text;html=1;strokeColor=none;fillColor=none;align=center;verticalAlign=middle;whiteSpace=wrap;rounded=0;fontSize=10;fontColor=#990000;fontStyle=2" parent="gSJsINXBegKE1LcOUbz0-1" vertex="1">
          <mxGeometry x="630" y="195" width="70" height="20" as="geometry" />
        </mxCell>
        <mxCell id="OmrFJGw_wg7e0XC3-Rxm-0" value="Title" parent="gSJsINXBegKE1LcOUbz0-0" visible="0" />
        <mxCell id="Maf1KFkJwOAkXcEBcFJN-0" value="&lt;font style=&quot;font-size: 12px&quot;&gt;Diagram: Logical Grouping of Functionality &amp;amp; Information - High Level&lt;/font&gt;" style="text;strokeColor=none;fillColor=none;html=1;fontSize=12;fontStyle=2;verticalAlign=middle;align=left;shadow=0;glass=0;comic=0;opacity=30;fontColor=#808080;strokeWidth=1;" parent="OmrFJGw_wg7e0XC3-Rxm-0" vertex="1">
          <mxGeometry x="120" y="440" width="520" height="20" as="geometry" />
        </mxCell>
      </root>
    </mxGraphModel>
  </diagram>
</mxfile>
